<svg width="22" height="22" viewBox="0 0 22 22" fill="none" xmlns="http://www.w3.org/2000/svg">
<g id="Group">
<path 
 stroke="black" fill="none" stroke-width="1"
id="Vector" d="M11.0001 21.5C12.8087 21.5 14.5866 21.0328 16.1616 20.1437C17.7366 19.2546 19.0552 17.9738 19.9897 16.4253C20.9242 14.8768 21.4429 13.1133 21.4955 11.3054C21.5481 9.49759 21.1328 7.70681 20.2899 6.10663C20.2422 6.02074 20.1627 5.95701 20.0685 5.92912C19.9743 5.90124 19.873 5.91143 19.7862 5.95751C19.6994 6.0036 19.6342 6.08189 19.6046 6.17555C19.5749 6.26921 19.5832 6.37077 19.6277 6.45838C20.3659 7.85833 20.7512 9.41734 20.7501 11C20.2157 23.9326 1.78444 23.9326 1.25007 11C1.16007 3.76925 9.20007 -1.07725 15.5421 2.37275C15.5856 2.39582 15.6332 2.4101 15.6822 2.41476C15.7313 2.41943 15.7807 2.41439 15.8278 2.39994C15.8749 2.38549 15.9187 2.36191 15.9566 2.33054C15.9946 2.29917 16.026 2.26064 16.0491 2.21713C16.0721 2.17362 16.0864 2.12599 16.0911 2.07697C16.0957 2.02794 16.0907 1.97847 16.0763 1.9314C16.0618 1.88432 16.0382 1.84054 16.0069 1.80258C15.9755 1.76461 15.937 1.7332 15.8934 1.71013C14.3852 0.914402 12.7054 0.498996 11.0001 0.500002C-2.92743 1.07563 -2.92743 20.9248 11.0001 21.5Z" fill="black"/>
<path 
 stroke="black" fill="none" stroke-width="1"
id="Vector_2" d="M11.0002 8C11.3248 7.99978 11.6472 8.05364 11.9542 8.15937C12.0482 8.19174 12.1513 8.18543 12.2406 8.14183C12.33 8.09823 12.3984 8.02091 12.4308 7.92688C12.5958 7.26425 11.4277 7.2905 11.0002 7.25C6.0258 7.4555 6.02617 14.5445 11.0002 14.75C11.9944 14.7489 12.9476 14.3535 13.6506 13.6504C14.3536 12.9474 14.7491 11.9942 14.7502 11C14.7119 10.565 14.737 9.40887 14.0767 9.57312C13.9827 9.6055 13.9055 9.67385 13.8619 9.76314C13.8183 9.85244 13.8119 9.95539 13.8442 10.0494C13.9486 10.3554 14.0013 10.6767 14.0002 11C13.8498 14.9739 8.15017 14.9739 8.00017 11C8.00116 10.2047 8.31755 9.44217 8.87995 8.87978C9.44234 8.31738 10.2048 8.00099 11.0002 8Z" fill="black"/>
<path 
 stroke="black" fill="none" stroke-width="1"
id="Vector_3" d="M14.5908 5.27563C14.6147 5.23254 14.6299 5.18517 14.6355 5.13621C14.6411 5.08726 14.6369 5.03768 14.6234 4.99032C14.6098 4.94295 14.587 4.89873 14.5563 4.86018C14.5256 4.82162 14.4877 4.78949 14.4445 4.76562C13.3903 4.18212 12.2052 3.87568 11.0002 3.875C1.54942 4.26575 1.54942 17.7346 11.0002 18.125C12.2396 18.1257 13.4578 17.803 14.5342 17.1886C15.6106 16.5742 16.5081 15.6895 17.1378 14.6219C17.7675 13.5544 18.1076 12.3409 18.1246 11.1016C18.1416 9.86231 17.8348 8.64002 17.2345 7.55563C17.1863 7.4686 17.1055 7.4043 17.0098 7.37688C16.9142 7.34945 16.8116 7.36114 16.7245 7.40937C16.6375 7.45761 16.5732 7.53844 16.5458 7.63409C16.5184 7.72973 16.5301 7.83235 16.5783 7.91937C18.9558 12.0414 15.7627 17.4575 11.0002 17.375C9.31 17.3731 7.68958 16.7009 6.49445 15.5057C5.29931 14.3106 4.62706 12.6902 4.62517 11C4.54342 6.23787 9.95805 3.04437 14.0808 5.42188C14.1239 5.44588 14.1712 5.46114 14.2202 5.46678C14.2692 5.47242 14.3188 5.46833 14.3662 5.45474C14.4136 5.44115 14.4578 5.41833 14.4964 5.38759C14.5349 5.35685 14.567 5.3188 14.5908 5.27563Z" fill="black"/>
<path 
 stroke="black" fill="none" stroke-width="1"
id="Vector_4" d="M15.3215 4.21177L15.4592 6.01065L10.7349 10.7349C10.6666 10.8056 10.6288 10.9003 10.6297 10.9987C10.6305 11.097 10.6699 11.1911 10.7395 11.2606C10.809 11.3301 10.9031 11.3695 11.0014 11.3704C11.0997 11.3713 11.1944 11.3335 11.2652 11.2651L15.9894 6.5409L17.7883 6.67852C17.8422 6.68262 17.8963 6.67503 17.947 6.65626C17.9977 6.63749 18.0437 6.60799 18.0819 6.56977L20.8112 3.84052C20.8608 3.78939 20.8949 3.72527 20.9096 3.65557C20.9243 3.58586 20.919 3.51341 20.8943 3.44659C20.8696 3.37977 20.8265 3.3213 20.77 3.27793C20.7135 3.23457 20.6458 3.20808 20.5749 3.20152L18.9249 3.07515L18.7985 1.42515C18.792 1.35421 18.7655 1.28657 18.7221 1.23004C18.6788 1.17352 18.6203 1.13041 18.5535 1.10571C18.4866 1.081 18.4142 1.0757 18.3445 1.09042C18.2748 1.10514 18.2107 1.13928 18.1595 1.1889L15.4303 3.91815C15.392 3.95633 15.3625 4.00235 15.3437 4.05304C15.325 4.10373 15.3174 4.15788 15.3215 4.21177ZM18.113 2.2959C18.263 4.04227 17.9675 3.73477 19.7042 3.88702L17.6735 5.91765L16.1957 5.8044L16.0824 4.3269L18.113 2.2959Z" fill="black"/>
</g>
</svg>
