<svg width="18" height="17" viewBox="0 0 18 17" fill="none" xmlns="http://www.w3.org/2000/svg">
<g transform-origin="center" style="transform-box: fill-box;" transform="scale(0.2, 0.2)">
 
        <animateTransform attributeName="transform" type="scale" begin="0s" dur="2s" keyTimes="0;  1" values="0;0.5" keySplines="0 0 1 1" repeatCount="indefinite"/>
<path d="M0 0H5.5V5.5H0V0Z" fill="#D9D9D9"/>
</g>
<path d="M6.5 0.799999H9V3.3H6.5V0.799999Z" fill="#D9D9D9"/>
<path d="M11 5.5H13.5V8H11V5.5Z" fill="#D9D9D9"/>
<path d="M9 9.5H11.5V12H9V9.5Z" fill="#D9D9D9"/>
<path d="M2.5 8.9H7V14.4H2.5V8.9Z" fill="#D9D9D9"/>
<path d="M6.25 4.5H9.25V7.5H6.25V4.5Z" fill="#D9D9D9"/>
<path d="M12 11.5H14V13.5H12V11.5Z" fill="#D9D9D9"/>
<path d="M16 14.5H18V16.5H16V14.5Z" fill="#D9D9D9"/>
<path d="M16 11.5H18V13.5H16V11.5Z" fill="#D9D9D9"/>

<g transform-origin="left" style="transform-box: fill-box;" transform="scale(0.2, 0.2)">
 
        <animateTransform attributeName="transform" type="scale" begin="0s" dur="2s" keyTimes="0;  1" values="0.5;0" keySplines="0 0 1 1" repeatCount="indefinite"/>
<path d="M13 8.5H15V10.5H13V8.5Z" fill="#D9D9D9"/>
</g>
</svg>
