<svg width="455" height="219" viewBox="0 0 455 219" fill="none" xmlns="http://www.w3.org/2000/svg">
<path d="M6.76349 115.182H27.054L48.4844 167.466H49.3963L70.8267 115.182H91.1172V193H75.1584V142.35H74.5124L54.3739 192.62H43.5067L23.3683 142.16H22.7223V193H6.76349V115.182Z" fill="#164763"/>

<path d="M189.8 128.747V115.182H253.711V128.747H229.887V193H213.624V128.747H189.8ZM280.689 115.182V193H264.236V115.182H280.689Z" fill="#164763"/>
<g transform-origin="center"  style="transform-box: fill-box;" transform="">
  <animateTransform attributeName="transform" type="rotate" begin="-0.00001" dur="3.00002" keyTimes="0; 1" values="0; 360" fill="freeze" additive="sum" calcMode="spline" keySplines="0 0 1 1" repeatCount="indefinite">
        </animateTransform>
 
<path d="M134.892 115.288C115.384 118.452 101.217 135.828 102.065 155.519C102.363 162.304 104.037 168.081 107.361 173.697C113.39 183.967 123.453 190.775 135.351 192.7C138.354 193.182 144.933 193.067 148.119 192.471C163.96 189.514 176.041 177.686 179.525 161.708C179.983 159.576 180.029 158.682 180.029 153.914C180.029 149.238 179.961 148.229 179.525 146.189C176.155 130.624 164.533 118.956 149.105 115.632C146.079 114.968 138.056 114.784 134.892 115.288ZM147.088 117.581C155.157 118.979 162.011 122.601 167.719 128.538C178.654 139.885 181.107 156.894 173.84 170.877C165.862 186.236 148.165 194.053 131.591 189.537C118.02 185.846 107.98 175.095 104.931 161.02C104.495 158.957 104.427 157.949 104.427 153.914C104.427 148.734 104.725 146.716 106.123 142.43C110.616 128.699 123.018 118.773 137.597 117.237C140.027 116.985 144.52 117.145 147.088 117.581Z" fill="#164763"/>
<path d="M137.025 118.314C136.406 118.36 135.924 118.474 135.924 118.566C135.924 118.658 136.199 120.583 136.52 122.853L137.139 127.002L141.059 126.979L144.979 126.956L145.529 122.784C145.85 120.492 146.034 118.543 145.942 118.452C145.759 118.268 138.675 118.154 137.025 118.314Z" fill="#164763"/>
<path d="M124.576 122.21C122.765 123.127 119.739 125.122 118.432 126.222L117.584 126.978L120.381 130.234C121.94 132.022 123.246 133.489 123.315 133.489C123.384 133.512 124.232 132.916 125.195 132.182C126.157 131.471 127.579 130.554 128.335 130.188C129.092 129.798 129.734 129.408 129.734 129.294C129.734 129.133 126.364 121.637 126.203 121.431C126.18 121.408 125.447 121.752 124.576 122.21Z" fill="#164763"/>
<path d="M155.294 122.554C154.996 123.219 154.194 125.007 153.506 126.52L152.269 129.271L153.896 130.142C154.79 130.623 156.257 131.586 157.151 132.251L158.779 133.489L161.278 130.6C164.624 126.726 164.487 126.933 163.96 126.36C163.089 125.397 156.647 121.362 155.982 121.362C155.913 121.362 155.593 121.913 155.294 122.554Z" fill="#164763"/>
<path d="M137.987 128.24C127.534 129.501 118.731 137.203 116.072 147.427C115.27 150.453 115.086 155.152 115.614 158.269C117.058 166.705 122.147 173.468 129.849 177.227C134.64 179.542 140.119 180.345 145.323 179.473C156.945 177.548 165.679 168.241 166.871 156.504C167.376 151.69 166.436 146.624 164.281 142.338C159.398 132.618 148.83 126.956 137.987 128.24ZM146.698 131.014C159.536 134.315 167.238 147.083 164.029 159.737C161.897 168.081 155.341 174.637 146.836 176.883C144.498 177.502 140.028 177.685 137.575 177.296C128.313 175.806 121.092 169.387 118.365 160.218C117.539 157.444 117.333 152.424 117.929 149.536C119.878 139.839 127.374 132.504 137.185 130.647C139.707 130.188 144.108 130.349 146.698 131.014Z" fill="#164763"/>
<path d="M135.717 132.939C123.201 136.239 116.37 149.306 120.794 161.547C122.353 165.833 125.998 170.235 129.918 172.573C138.445 177.662 149.403 176.309 156.417 169.341C159.352 166.407 161.575 162.372 162.378 158.452C162.79 156.412 162.859 152.148 162.492 150.108C161.3 143.346 156.807 137.431 150.572 134.429C147.271 132.847 145.941 132.549 141.655 132.457C138.193 132.365 137.689 132.411 135.717 132.939ZM145.918 135.116C151.81 136.629 157.082 141.26 159.168 146.761C160.635 150.635 160.956 155.014 160.016 158.613C156.395 172.389 140.256 177.891 129.092 169.157C126.8 167.369 125.104 165.237 123.774 162.51C122.146 159.163 121.848 157.856 121.825 154.028C121.825 149.879 122.536 147.22 124.485 143.873C125.631 141.97 129.276 138.348 131.247 137.225C133.15 136.125 136.313 135.002 138.445 134.681C140.462 134.383 143.741 134.566 145.918 135.116Z" fill="#164763"/>
<path d="M136.542 138.12C134.777 138.624 133.608 139.175 131.843 140.344L130.605 141.146L132.233 142.773L133.86 144.424L132.714 145.547L131.568 146.67L129.963 145.089L128.336 143.484L127.9 144.057C126.594 145.731 125.218 149.054 124.805 151.438L124.668 152.31H126.983H129.276V153.914V155.519H126.96H124.645L124.805 156.482C125.103 158.27 126.043 160.883 126.869 162.281C128.244 164.574 128.129 164.551 129.963 162.74L131.568 161.158L132.714 162.281L133.86 163.404L132.233 165.055L130.605 166.682L131.385 167.256C133.241 168.654 136.29 169.938 138.514 170.258L139.362 170.396V168.104V165.834H141.081H142.801V168.127C142.801 169.387 142.847 170.419 142.938 170.419C144.474 170.419 149.678 168.356 151.03 167.21L151.58 166.728L150.022 165.147L148.44 163.542L149.563 162.396L150.686 161.25L152.337 162.877L153.965 164.505L155.065 162.763C156.257 160.837 157.128 158.545 157.38 156.711L157.541 155.519H155.202H152.887V153.914V152.31H155.18C157.426 152.31 157.472 152.287 157.472 151.782C157.472 150.132 155.707 145.754 154.4 144.172L153.827 143.484L152.222 145.089L150.595 146.67L149.563 145.662C148.99 145.112 148.532 144.539 148.532 144.424C148.532 144.286 149.219 143.507 150.045 142.659L151.535 141.146L150.732 140.527C149.059 139.266 144.933 137.639 143.328 137.639C142.847 137.639 142.824 137.73 142.755 139.862L142.686 142.109H141.081H139.477L139.408 139.862L139.339 137.639L138.72 137.662C138.376 137.662 137.391 137.868 136.542 138.12ZM137.757 141.765V143.828H141.196H144.635V141.765C144.635 140.619 144.68 139.702 144.749 139.702C145.024 139.702 147.913 140.871 148.302 141.146C148.715 141.444 148.669 141.536 147.271 142.911L145.781 144.401L148.234 146.854L150.709 149.33L152.222 147.817L153.735 146.327L154.423 147.885C155.684 150.659 155.753 150.476 153.369 150.476H151.282V153.914V157.353H153.346C154.492 157.353 155.409 157.399 155.409 157.421C155.409 157.674 154.492 160.149 154.148 160.791L153.758 161.548L152.337 160.126C151.558 159.37 150.824 158.728 150.709 158.728C150.595 158.728 149.426 159.783 148.142 161.066L145.781 163.427L147.317 164.963L148.853 166.499L147.363 167.187C146.56 167.554 145.62 167.943 145.276 168.035L144.635 168.172V166.086V164H141.196H137.757V166.064C137.757 167.783 137.689 168.127 137.391 168.127C136.932 168.127 133.631 166.751 133.631 166.568C133.631 166.476 134.273 165.766 135.052 164.986L136.497 163.542L134.021 161.089L131.568 158.613L130.124 160.058C129.344 160.837 128.634 161.479 128.565 161.479C128.359 161.479 127.235 158.911 127.075 158.063L126.937 157.353H129.023H131.11V153.914V150.476H129.046C127.373 150.476 126.983 150.407 126.983 150.132C126.983 149.628 128.129 146.877 128.45 146.602C128.657 146.418 129.138 146.762 130.193 147.84L131.683 149.33L134.021 146.991C135.328 145.685 136.382 144.539 136.382 144.401C136.382 144.286 135.74 143.553 134.984 142.773L133.562 141.352L134.342 140.94C135.121 140.55 137.276 139.725 137.597 139.702C137.689 139.702 137.757 140.619 137.757 141.765Z" fill="#164763"/>
<path d="M167.513 136.813C165.542 138.074 163.914 139.197 163.914 139.266C163.891 139.335 164.327 140.183 164.877 141.123C165.427 142.086 166.115 143.599 166.413 144.493C166.734 145.409 167.1 146.12 167.284 146.12C167.673 146.12 175.17 143.874 175.33 143.69C175.674 143.346 172.602 136.332 171.502 134.979L171.112 134.475L167.513 136.813Z" fill="#164763"/>
<path d="M110.411 135.53C109.15 137.524 106.812 142.797 106.812 143.668C106.812 143.897 108.141 144.378 110.961 145.203C113.23 145.868 115.11 146.373 115.156 146.327C115.179 146.281 115.454 145.57 115.729 144.745C116.027 143.92 116.715 142.384 117.265 141.329C117.815 140.275 118.25 139.381 118.205 139.335C118.136 139.266 111.901 135.232 111.236 134.819C111.052 134.705 110.754 134.957 110.411 135.53Z" fill="#164763"/>
<path d="M105.71 154.075C105.252 154.167 105.206 154.259 105.321 155.428C105.389 156.115 105.481 157.262 105.55 157.972C105.779 160.471 106.604 164.001 106.994 164.001C107.177 164.001 109.103 163.474 111.281 162.832L115.224 161.64L114.788 159.898C114.559 158.935 114.284 157.193 114.215 156.024L114.078 153.915L110.158 153.938C108.003 153.961 106.008 154.029 105.71 154.075Z" fill="#164763"/>
<path d="M168.133 155.678C167.996 157.306 167.629 159.484 167.216 161.042C167.079 161.615 167.079 161.638 171.251 162.83C174.483 163.77 175.446 163.977 175.606 163.747C175.927 163.22 176.73 158.429 176.89 156.137L177.028 153.913H172.649H168.294L168.133 155.678Z" fill="#164763"/>
<path d="M114.766 170.899C112.794 172.183 111.167 173.329 111.167 173.467C111.167 174.2 117.058 180.986 117.677 180.94C117.814 180.94 119.19 179.473 120.703 177.685L123.5 174.43L121.987 172.939C121.161 172.114 120.038 170.831 119.465 170.074C118.915 169.318 118.433 168.676 118.41 168.653C118.365 168.607 116.737 169.639 114.766 170.899Z" fill="#164763"/>
<path d="M162.973 169.777C162.538 170.419 161.438 171.748 160.521 172.711L158.87 174.476L161.621 177.663C163.134 179.405 164.464 180.872 164.555 180.918C165.014 181.078 171.226 174.018 171.226 173.33C171.226 173.215 164.051 168.585 163.868 168.585C163.822 168.585 163.409 169.135 162.973 169.777Z" fill="#164763"/>
<path d="M128.129 182.477C127.189 184.563 126.387 186.351 126.341 186.442C126.18 186.878 132.37 188.872 135.144 189.308L136.084 189.445L136.588 185.823C136.863 183.852 137.138 181.904 137.207 181.514L137.344 180.78L135.533 180.391C134.548 180.184 132.92 179.703 131.934 179.336C130.926 178.969 130.055 178.671 129.986 178.671C129.917 178.671 129.069 180.391 128.129 182.477Z" fill="#164763"/>
<path d="M149.792 179.474C148.669 179.886 147.271 180.299 146.697 180.391C144.932 180.643 144.978 180.482 145.528 184.425C146.308 189.973 146.147 189.491 147.133 189.308C150.526 188.689 155.867 186.901 155.867 186.374C155.867 185.755 152.497 178.786 152.176 178.763C151.993 178.74 150.938 179.061 149.792 179.474Z" fill="#164763"/>
</g>
<g transform-origin="center"  style="transform-box: fill-box;" transform="">
  <animateTransform attributeName="transform" type="rotate" begin="-0.00001" dur="3.00002" keyTimes="0; 1" values="0; 360" fill="freeze" additive="sum" calcMode="spline" keySplines="0 0 1 1" repeatCount="indefinite">
        </animateTransform>
<path d="M325.802 115.228C306.294 118.391 292.127 135.767 292.976 155.458C293.274 162.244 294.947 168.02 298.271 173.636C304.3 183.906 314.364 190.714 326.261 192.64C329.264 193.121 335.843 193.007 339.03 192.411C354.87 189.453 366.951 177.625 370.435 161.648C370.894 159.516 370.939 158.622 370.939 153.854C370.939 149.177 370.871 148.169 370.435 146.129C367.065 130.564 355.443 118.896 340.015 115.572C336.989 114.907 328.966 114.724 325.802 115.228ZM337.998 117.52C346.067 118.919 352.921 122.54 358.629 128.478C369.564 139.825 372.017 156.834 364.75 170.817C356.773 186.175 339.075 193.992 322.501 189.476C308.931 185.786 298.89 175.035 295.841 160.96C295.406 158.897 295.337 157.888 295.337 153.854C295.337 148.673 295.635 146.656 297.033 142.369C301.526 128.638 313.928 118.712 328.507 117.176C330.937 116.924 335.43 117.085 337.998 117.52Z" fill="#164763"/>

<path d="M327.934 118.253C327.315 118.299 326.834 118.414 326.834 118.506C326.834 118.597 327.109 120.523 327.43 122.792L328.049 126.941L331.969 126.918L335.889 126.896L336.439 122.724C336.76 120.431 336.943 118.483 336.852 118.391C336.668 118.208 329.585 118.093 327.934 118.253Z" fill="#164763"/>
<path d="M315.487 122.15C313.676 123.067 310.65 125.062 309.343 126.162L308.495 126.918L311.292 130.173C312.851 131.961 314.157 133.429 314.226 133.429C314.295 133.451 315.143 132.855 316.106 132.122C317.069 131.411 318.49 130.494 319.246 130.128C320.003 129.738 320.645 129.348 320.645 129.234C320.645 129.073 317.275 121.577 317.114 121.371C317.092 121.348 316.358 121.692 315.487 122.15Z" fill="#164763"/>
<path d="M346.205 122.494C345.907 123.159 345.104 124.947 344.417 126.46L343.179 129.211L344.806 130.082C345.7 130.563 347.167 131.526 348.061 132.191L349.689 133.429L352.188 130.54C355.535 126.666 355.397 126.873 354.87 126.3C353.999 125.337 347.557 121.302 346.892 121.302C346.824 121.302 346.503 121.852 346.205 122.494Z" fill="#164763"/>
<path d="M328.897 128.179C318.444 129.44 309.641 137.142 306.982 147.366C306.18 150.392 305.997 155.091 306.524 158.209C307.968 166.645 313.057 173.407 320.76 177.166C325.551 179.482 331.029 180.284 336.233 179.413C347.855 177.487 356.589 168.18 357.781 156.444C358.286 151.63 357.346 146.564 355.191 142.277C350.308 132.558 339.74 126.896 328.897 128.179ZM337.609 130.953C350.446 134.254 358.148 147.022 354.939 159.676C352.807 168.02 346.251 174.576 337.746 176.823C335.408 177.441 330.938 177.625 328.485 177.235C319.224 175.745 312.003 169.327 309.275 160.157C308.449 157.384 308.243 152.363 308.839 149.475C310.788 139.779 318.284 132.443 328.095 130.586C330.617 130.128 335.018 130.288 337.609 130.953Z" fill="#164763"/>
<path d="M326.628 132.878C314.112 136.179 307.28 149.246 311.705 161.487C313.263 165.773 316.908 170.175 320.828 172.513C329.356 177.602 340.313 176.249 347.328 169.281C350.262 166.346 352.486 162.312 353.288 158.392C353.701 156.352 353.77 152.088 353.403 150.048C352.211 143.286 347.718 137.371 341.483 134.368C338.182 132.787 336.852 132.489 332.565 132.397C329.104 132.305 328.599 132.351 326.628 132.878ZM336.829 135.056C342.72 136.569 347.993 141.2 350.079 146.701C351.546 150.575 351.867 154.954 350.927 158.553C347.305 172.329 331.167 177.831 320.003 169.097C317.711 167.309 316.014 165.177 314.685 162.449C313.057 159.103 312.759 157.796 312.736 153.968C312.736 149.819 313.447 147.16 315.395 143.813C316.541 141.91 320.186 138.288 322.158 137.165C324.06 136.065 327.224 134.942 329.356 134.621C331.373 134.323 334.651 134.506 336.829 135.056Z" fill="#164763"/>
<path d="M327.453 138.06C325.687 138.564 324.518 139.114 322.753 140.283L321.515 141.085L323.143 142.713L324.771 144.363L323.624 145.487L322.478 146.61L320.873 145.028L319.246 143.424L318.81 143.997C317.504 145.67 316.128 148.994 315.716 151.378L315.578 152.249H317.893H320.186V153.854V155.458H317.87H315.555L315.716 156.421C316.014 158.209 316.954 160.822 317.779 162.221C319.154 164.513 319.04 164.49 320.873 162.679L322.478 161.097L323.624 162.221L324.771 163.344L323.143 164.994L321.515 166.622L322.295 167.195C324.152 168.593 327.2 169.877 329.424 170.198L330.272 170.335V168.043V165.774H331.992H333.711V168.066C333.711 169.327 333.757 170.358 333.848 170.358C335.384 170.358 340.588 168.295 341.94 167.149L342.491 166.668L340.932 165.086L339.35 163.481L340.473 162.335L341.597 161.189L343.247 162.817L344.875 164.444L345.975 162.702C347.167 160.776 348.038 158.484 348.29 156.65L348.451 155.458H346.113H343.797V153.854V152.249H346.09C348.336 152.249 348.382 152.226 348.382 151.722C348.382 150.071 346.617 145.693 345.31 144.111L344.737 143.424L343.133 145.028L341.505 146.61L340.473 145.601C339.9 145.051 339.442 144.478 339.442 144.363C339.442 144.226 340.129 143.446 340.955 142.598L342.445 141.085L341.642 140.466C339.969 139.206 335.843 137.578 334.238 137.578C333.757 137.578 333.734 137.67 333.665 139.802L333.596 142.048H331.992H330.387L330.318 139.802L330.249 137.578L329.63 137.601C329.287 137.601 328.301 137.807 327.453 138.06ZM328.668 141.704V143.767H332.106H335.545V141.704C335.545 140.558 335.591 139.641 335.659 139.641C335.934 139.641 338.823 140.81 339.213 141.085C339.625 141.383 339.579 141.475 338.181 142.85L336.691 144.34L339.144 146.793L341.62 149.269L343.133 147.756L344.645 146.266L345.333 147.825C346.594 150.599 346.663 150.415 344.279 150.415H342.193V153.854V157.292H344.256C345.402 157.292 346.319 157.338 346.319 157.361C346.319 157.613 345.402 160.089 345.058 160.731L344.668 161.487L343.247 160.066C342.468 159.309 341.734 158.668 341.62 158.668C341.505 158.668 340.336 159.722 339.052 161.006L336.691 163.367L338.227 164.903L339.763 166.439L338.273 167.126C337.47 167.493 336.53 167.883 336.187 167.974L335.545 168.112V166.026V163.94H332.106H328.668V166.003C328.668 167.722 328.599 168.066 328.301 168.066C327.842 168.066 324.541 166.691 324.541 166.507C324.541 166.416 325.183 165.705 325.963 164.926L327.407 163.481L324.931 161.029L322.478 158.553L321.034 159.997C320.255 160.776 319.544 161.418 319.475 161.418C319.269 161.418 318.146 158.851 317.985 158.003L317.848 157.292H319.934H322.02V153.854V150.415H319.957C318.283 150.415 317.893 150.346 317.893 150.071C317.893 149.567 319.04 146.816 319.361 146.541C319.567 146.358 320.048 146.702 321.103 147.779L322.593 149.269L324.931 146.931C326.238 145.624 327.292 144.478 327.292 144.34C327.292 144.226 326.65 143.492 325.894 142.713L324.473 141.292L325.252 140.879C326.031 140.489 328.186 139.664 328.507 139.641C328.599 139.641 328.668 140.558 328.668 141.704Z" fill="#164763"/>
<path d="M358.423 136.753C356.451 138.014 354.824 139.137 354.824 139.206C354.801 139.274 355.236 140.122 355.786 141.062C356.337 142.025 357.024 143.538 357.322 144.432C357.643 145.349 358.01 146.06 358.193 146.06C358.583 146.06 366.079 143.813 366.24 143.63C366.584 143.286 363.512 136.271 362.411 134.919L362.022 134.415L358.423 136.753Z" fill="#164763"/>
<path d="M301.32 135.469C300.059 137.463 297.721 142.735 297.721 143.607C297.721 143.836 299.05 144.317 301.87 145.142C304.139 145.807 306.019 146.312 306.065 146.266C306.088 146.22 306.363 145.509 306.638 144.684C306.936 143.859 307.624 142.323 308.174 141.268C308.724 140.214 309.16 139.32 309.114 139.274C309.045 139.205 302.81 135.171 302.145 134.758C301.962 134.644 301.664 134.896 301.32 135.469Z" fill="#164763"/>
<path d="M296.621 154.014C296.162 154.106 296.116 154.198 296.231 155.367C296.3 156.054 296.391 157.201 296.46 157.911C296.689 160.41 297.515 163.94 297.904 163.94C298.088 163.94 300.013 163.413 302.191 162.771L306.134 161.579L305.698 159.837C305.469 158.874 305.194 157.132 305.125 155.963L304.988 153.854L301.068 153.877C298.913 153.9 296.919 153.968 296.621 154.014Z" fill="#164763"/>
<path d="M359.042 155.618C358.904 157.246 358.538 159.424 358.125 160.982C357.987 161.555 357.987 161.578 362.16 162.77C365.392 163.71 366.355 163.917 366.515 163.687C366.836 163.16 367.638 158.369 367.799 156.077L367.936 153.853H363.558H359.202L359.042 155.618Z" fill="#164763"/>
<path d="M305.675 170.839C303.704 172.123 302.076 173.269 302.076 173.407C302.076 174.14 307.968 180.925 308.587 180.88C308.724 180.88 310.1 179.413 311.612 177.625L314.409 174.369L312.896 172.879C312.071 172.054 310.948 170.77 310.375 170.014C309.824 169.258 309.343 168.616 309.32 168.593C309.274 168.547 307.647 169.578 305.675 170.839Z" fill="#164763"/>
<path d="M353.884 169.716C353.449 170.358 352.348 171.688 351.431 172.651L349.781 174.416L352.532 177.602C354.045 179.344 355.374 180.811 355.466 180.857C355.924 181.018 362.137 173.957 362.137 173.27C362.137 173.155 354.962 168.524 354.778 168.524C354.732 168.524 354.32 169.075 353.884 169.716Z" fill="#164763"/>
<path d="M319.04 182.416C318.1 184.502 317.297 186.29 317.252 186.382C317.091 186.817 323.281 188.812 326.054 189.247L326.994 189.385L327.499 185.763C327.774 183.791 328.049 181.843 328.117 181.453L328.255 180.72L326.444 180.33C325.458 180.124 323.831 179.642 322.845 179.276C321.836 178.909 320.965 178.611 320.896 178.611C320.828 178.611 319.98 180.33 319.04 182.416Z" fill="#164763"/>
<path d="M340.703 179.413C339.58 179.825 338.181 180.238 337.608 180.33C335.843 180.582 335.889 180.421 336.439 184.364C337.218 189.912 337.058 189.43 338.044 189.247C341.436 188.628 346.778 186.84 346.778 186.313C346.778 185.694 343.408 178.725 343.087 178.702C342.903 178.679 341.849 179 340.703 179.413Z" fill="#164763"/>
</g>
<path d="M447.853 115.182V193H433.642L399.786 144.022H399.216V193H382.763V115.182H397.202L430.792 164.122H431.476V115.182H447.853Z" fill="#164763"/>
<path d="M13.3965 43L4.24023 11H11.6309L16.9277 33.2344H17.1934L23.0371 11H29.3652L35.1934 33.2812H35.4746L40.7715 11H48.1621L39.0059 43H32.4121L26.3184 22.0781H26.0684L19.9902 43H13.3965ZM51.7832 43V11H58.5488V24.2031H72.2832V11H79.0332V43H72.2832V29.7812H58.5488V43H51.7832ZM84.6113 43V11H106.174V16.5781H91.377V24.2031H105.064V29.7812H91.377V37.4219H106.236V43H84.6113ZM111.553 43V11H124.178C126.594 11 128.657 11.4323 130.365 12.2969C132.084 13.151 133.391 14.3646 134.287 15.9375C135.193 17.5 135.646 19.3385 135.646 21.4531C135.646 23.5781 135.188 25.4062 134.271 26.9375C133.355 28.4583 132.027 29.625 130.287 30.4375C128.558 31.25 126.464 31.6562 124.006 31.6562H115.553V26.2187H122.912C124.204 26.2187 125.277 26.0417 126.131 25.6875C126.985 25.3333 127.62 24.8021 128.037 24.0938C128.464 23.3854 128.678 22.5052 128.678 21.4531C128.678 20.3906 128.464 19.4948 128.037 18.7656C127.62 18.0365 126.98 17.4844 126.115 17.1094C125.261 16.724 124.183 16.5312 122.881 16.5312H118.318V43H111.553ZM128.834 28.4375L136.787 43H129.318L121.537 28.4375H128.834ZM140.428 43V11H161.99V16.5781H147.193V24.2031H160.881V29.7812H147.193V37.4219H162.053V43H140.428Z" fill="#164763"/>

<path d="M337.28 74.2727H343.727L350.537 90.8864H350.827L357.637 74.2727H364.084V99H359.013V82.9055H358.808L352.409 98.8793H348.955L342.556 82.8452H342.351V99H337.28V74.2727ZM368.391 99V74.2727H385.053V78.5831H373.619V84.4751H384.196V88.7855H373.619V94.6896H385.102V99H368.391ZM389.21 99V74.2727H405.872V78.5831H394.438V84.4751H405.014V88.7855H394.438V94.6896H405.92V99H389.21ZM409.086 78.5831V74.2727H429.395V78.5831H421.824V99H416.657V78.5831H409.086ZM446.153 81.3842C446.056 80.4103 445.642 79.6536 444.909 79.1143C444.177 78.575 443.183 78.3054 441.927 78.3054C441.074 78.3054 440.354 78.4261 439.766 78.6676C439.178 78.901 438.728 79.227 438.414 79.6456C438.108 80.0642 437.955 80.5391 437.955 81.0703C437.939 81.513 438.031 81.8994 438.233 82.2294C438.442 82.5594 438.728 82.8452 439.09 83.0866C439.452 83.3201 439.871 83.5253 440.346 83.7024C440.82 83.8714 441.328 84.0163 441.867 84.1371L444.088 84.6683C445.167 84.9098 446.157 85.2318 447.059 85.6342C447.96 86.0367 448.741 86.5317 449.401 87.1193C450.061 87.7069 450.572 88.3991 450.934 89.196C451.305 89.9929 451.494 90.9065 451.502 91.9368C451.494 93.45 451.107 94.7621 450.343 95.8729C449.586 96.9756 448.491 97.8329 447.059 98.4446C445.634 99.0483 443.915 99.3501 441.903 99.3501C439.907 99.3501 438.168 99.0443 436.687 98.4325C435.214 97.8208 434.063 96.9152 433.234 95.7159C432.413 94.5085 431.982 93.0154 431.942 91.2365H437.001C437.057 92.0656 437.295 92.7578 437.713 93.3132C438.14 93.8606 438.708 94.2751 439.416 94.5568C440.132 94.8305 440.941 94.9673 441.843 94.9673C442.728 94.9673 443.497 94.8385 444.149 94.581C444.809 94.3234 445.32 93.9652 445.682 93.5064C446.044 93.0476 446.225 92.5204 446.225 91.9247C446.225 91.3693 446.06 90.9025 445.73 90.5241C445.408 90.1458 444.934 89.8239 444.306 89.5582C443.686 89.2926 442.925 89.0511 442.024 88.8338L439.331 88.1577C437.247 87.6506 435.6 86.8577 434.393 85.7791C433.186 84.7005 432.586 83.2476 432.594 81.4205C432.586 79.9233 432.984 78.6153 433.789 77.4964C434.602 76.3776 435.717 75.5043 437.134 74.8764C438.551 74.2486 440.16 73.9347 441.963 73.9347C443.799 73.9347 445.4 74.2486 446.769 74.8764C448.145 75.5043 449.216 76.3776 449.98 77.4964C450.745 78.6153 451.14 79.9112 451.164 81.3842H446.153Z" fill="#164763"/>
<path d="M39.7463 72.9976H31.3471C31.1937 71.9109 30.8805 70.9457 30.4075 70.102C29.9345 69.2454 29.3272 68.5167 28.5858 67.9159C27.8443 67.315 26.9877 66.8548 26.0162 66.5352C25.0574 66.2156 24.0154 66.0558 22.8904 66.0558C20.8578 66.0558 19.0872 66.5608 17.5787 67.5707C16.0701 68.5679 14.9004 70.0253 14.0694 71.9429C13.2385 73.8477 12.823 76.1616 12.823 78.8846C12.823 81.6843 13.2385 84.0366 14.0694 85.9415C14.9132 87.8463 16.0893 89.2845 17.5978 90.2561C19.1064 91.2277 20.8514 91.7135 22.8329 91.7135C23.9451 91.7135 24.9743 91.5665 25.9203 91.2724C26.8791 90.9784 27.7292 90.5501 28.4707 89.9876C29.2122 89.4123 29.8258 88.7156 30.3116 87.8974C30.8102 87.0792 31.1554 86.146 31.3471 85.0977L39.7463 85.1361C39.5289 86.9386 38.9856 88.6772 38.1163 90.352C37.2598 92.0139 36.1028 93.5032 34.6454 94.82C33.2008 96.124 31.475 97.1595 29.4679 97.9265C27.4735 98.6808 25.2172 99.0579 22.6987 99.0579C19.1958 99.0579 16.0637 98.2653 13.3024 96.6801C10.5538 95.0949 8.3805 92.8001 6.78249 89.7959C5.19727 86.7916 4.40465 83.1545 4.40465 78.8846C4.40465 74.602 5.21005 70.9585 6.82085 67.9542C8.43164 64.95 10.6177 62.6616 13.3791 61.0892C16.1404 59.5039 19.247 58.7113 22.6987 58.7113C24.9743 58.7113 27.0836 59.0309 29.0268 59.6701C30.9828 60.3093 32.715 61.2426 34.2235 62.4699C35.7321 63.6843 36.9593 65.1737 37.9054 66.9379C38.8642 68.7021 39.4778 70.722 39.7463 72.9976ZM45.7005 98.521V59.2483H61.1948C64.1607 59.2483 66.6919 59.7788 68.7885 60.8399C70.8979 61.8882 72.5023 63.3775 73.6017 65.3079C74.714 67.2255 75.2701 69.4819 75.2701 72.0771C75.2701 74.6851 74.7076 76.9287 73.5826 78.8079C72.4576 80.6744 70.8276 82.1062 68.6927 83.1034C66.5705 84.1005 64.0009 84.5991 60.9838 84.5991H50.6096V77.9258H59.6415C61.2267 77.9258 62.5435 77.7085 63.5918 77.2738C64.6401 76.8392 65.4199 76.1872 65.9313 75.3179C66.4554 74.4486 66.7175 73.3683 66.7175 72.0771C66.7175 70.7731 66.4554 69.6737 65.9313 68.7788C65.4199 67.8839 64.6337 67.2064 63.5726 66.7461C62.5243 66.2731 61.2012 66.0366 59.6032 66.0366H54.0037V98.521H45.7005ZM66.9093 80.6488L76.6699 98.521H67.5037L57.954 80.6488H66.9093ZM81.138 98.521V59.2483H107.601V66.0941H89.4412V75.4521H106.24V82.298H89.4412V91.6751H107.678V98.521H81.138ZM120.972 98.521H112.074L125.631 59.2483H136.332L149.87 98.521H140.972L131.135 68.2227H130.828L120.972 98.521ZM120.415 83.0842H141.433V89.5657H120.415V83.0842ZM148.302 66.0941V59.2483H180.557V66.0941H168.533V98.521H160.326V66.0941H148.302ZM194.172 59.2483V98.521H185.868V59.2483H194.172ZM208.098 59.2483L217.591 89.0863H217.955L227.466 59.2483H236.671L223.132 98.521H212.432L198.875 59.2483H208.098ZM249.701 59.2483V98.521H241.398V59.2483H249.701ZM255.037 66.0941V59.2483H287.291V66.0941H275.268V98.521H267.06V66.0941H255.037ZM290.302 59.2483H299.602L308.557 76.1616H308.941L317.896 59.2483H327.197L312.872 84.6375V98.521H304.626V84.6375L290.302 59.2483Z" fill="#F26023"/>
</svg>
