<svg width="103" height="15" viewBox="0 0 103 15" fill="none" xmlns="http://www.w3.org/2000/svg">
<path d="M99.0004 4.90057C98.901 4.55492 98.7613 4.24953 98.5814 3.98438C98.4015 3.71449 98.1813 3.48722 97.9209 3.30256C97.6652 3.11316 97.3716 2.96875 97.0402 2.86932C96.7135 2.76989 96.3513 2.72017 95.9535 2.72017C95.2102 2.72017 94.5568 2.90483 93.9933 3.27415C93.4346 3.64347 92.999 4.18087 92.6865 4.88636C92.374 5.58712 92.2178 6.44413 92.2178 7.45739C92.2178 8.47064 92.3716 9.33239 92.6794 10.0426C92.9872 10.7528 93.4228 11.295 93.9862 11.669C94.5497 12.0384 95.2149 12.223 95.982 12.223C96.678 12.223 97.2722 12.0999 97.7646 11.8537C98.2618 11.6027 98.6406 11.25 98.901 10.7955C99.1661 10.3409 99.2987 9.8035 99.2987 9.18324L99.9237 9.27557H96.1737V6.96023H102.26V8.79261C102.26 10.071 101.99 11.1695 101.451 12.0881C100.911 13.0019 100.168 13.7074 99.2206 14.2045C98.2736 14.697 97.1893 14.9432 95.9678 14.9432C94.6041 14.9432 93.4062 14.6425 92.374 14.0412C91.3418 13.4351 90.5369 12.5758 89.9592 11.4631C89.3863 10.3456 89.0999 9.01989 89.0999 7.4858C89.0999 6.30682 89.2703 5.25568 89.6112 4.33239C89.9569 3.40436 90.4398 2.61837 91.0601 1.97443C91.6803 1.33049 92.4024 0.840436 93.2263 0.504261C94.0501 0.168087 94.9427 0 95.9038 0C96.7277 0 97.4947 0.120739 98.205 0.362216C98.9152 0.598959 99.5449 0.935133 100.094 1.37074C100.648 1.80634 101.1 2.32481 101.451 2.92614C101.801 3.52273 102.026 4.18087 102.125 4.90057H99.0004Z" fill="white"/>
<path d="M86.8146 0.198868V14.7443H84.1584L77.8303 5.58949H77.7237V14.7443H74.6484V0.198868H77.3473L83.6257 9.34659H83.7535V0.198868H86.8146Z" fill="white"/>
<path d="M72.1182 0.198868V14.7443H69.043V0.198868H72.1182Z" fill="white"/>
<path d="M66.5021 0.198868V14.7443H63.8459L57.5178 5.58949H57.4112V14.7443H54.3359V0.198868H57.0348L63.3132 9.34659H63.441V0.198868H66.5021Z" fill="white"/>
<path d="M51.7951 0.198868V14.7443H49.1388L42.8107 5.58949H42.7042V14.7443H39.6289V0.198868H42.3278L48.6062 9.34659H48.734V0.198868H51.7951Z" fill="white"/>
<path d="M27.1751 14.7443H23.8796L28.9009 0.198868H32.864L37.8782 14.7443H34.5828L30.9393 3.52273H30.8257L27.1751 14.7443ZM26.9691 9.02699H34.7532V11.4276H26.9691V9.02699Z" fill="white"/>
<path d="M12.9492 14.7443V0.198868H16.0245V12.2088H22.2603V14.7443H12.9492Z" fill="white"/>
<path d="M0 14.7443V0.198868H5.73864C6.84186 0.198868 7.78172 0.409569 8.55824 0.83097C9.33475 1.24764 9.92661 1.82766 10.3338 2.57103C10.7457 3.30966 10.9517 4.16194 10.9517 5.12784C10.9517 6.09375 10.7434 6.94603 10.3267 7.68466C9.91004 8.4233 9.30634 8.99858 8.51562 9.41052C7.72964 9.82245 6.77794 10.0284 5.66051 10.0284H2.00284V7.56392H5.16335C5.75521 7.56392 6.2429 7.46213 6.62642 7.25853C7.01468 7.05019 7.3035 6.76374 7.4929 6.39915C7.68703 6.02983 7.78409 5.60606 7.78409 5.12784C7.78409 4.64489 7.68703 4.22349 7.4929 3.86364C7.3035 3.49906 7.01468 3.21733 6.62642 3.01847C6.23816 2.81487 5.74574 2.71307 5.14915 2.71307H3.07528V14.7443H0Z" fill="white"/>
</svg>
